<?xml version="1.0" standalone="no"?>
<!DOCTYPE svg PUBLIC "-//W3C//DTD SVG 1.1//EN" "http://www.w3.org/Graphics/SVG/1.1/DTD/svg11.dtd" >
<svg xmlns="http://www.w3.org/2000/svg">
<metadata></metadata>
<defs>
<font id="centralesansmedium_italic" horiz-adv-x="542" >
<font-face units-per-em="2048" ascent="1536" descent="-512" />
<missing-glyph horiz-adv-x="500" />
<glyph unicode="&#xfb03;" horiz-adv-x="1808" d="M61 -225l197 1138h-164l29 152h162l22 123q13 76 34.5 131t60 102t102 71t151.5 24t201 -25l-39 -156q-70 19 -115 19q-153 0 -180 -166l-22 -123h389l18 106q31 175 153.5 267t295.5 92q93 0 184 -27.5t158 -79.5l-70 -120q-34 24 -103.5 48.5t-148.5 24.5 q-110 0 -173 -52.5t-81 -147.5l-20 -111h643l-186 -1065h-216l160 913h-426l-198 -1138h-215l198 1138h-389l-197 -1138h-215z" />
<glyph unicode="&#xfb04;" horiz-adv-x="1875" d="M59 -225l199 1138h-164l27 152h164l24 131q13 72 34 124.5t59.5 99.5t102.5 71.5t152 24.5q94 0 209 -27l-41 -154q-66 19 -118 19q-154 0 -183 -160l-24 -129h387l16 80q31 177 143.5 280t309.5 103q83 0 154 -19t128.5 -57.5t90 -104.5t32.5 -153q0 -47 -12 -111 l-156 -852q-8 -47 11 -64t59 -17q61 0 88 6l-20 -158q-79 -14 -168 -14q-119 0 -164.5 52t-22.5 179l158 889q10 56 10 78q0 94 -51.5 139t-134.5 45q-92 0 -155.5 -56.5t-86.5 -168.5l-14 -76h239l-28 -152h-238l-198 -1138h-215l198 1138h-387l-199 -1138h-215z" />
<glyph horiz-adv-x="0" />
<glyph horiz-adv-x="0" />
<glyph horiz-adv-x="682" />
<glyph unicode="&#xd;" horiz-adv-x="610" />
<glyph unicode=" " />
<glyph unicode="!" horiz-adv-x="577" d="M92 88q5 52 37.5 83.5t85.5 31.5q58 0 91.5 -29t29.5 -84q-3 -51 -35.5 -83t-89.5 -32q-56 0 -89.5 28.5t-29.5 84.5zM168 416l145 1022h246l-215 -1022h-176z" />
<glyph unicode="&#x22;" horiz-adv-x="921" d="M209 872l108 562h230l-203 -562h-135zM602 872l111 562h229l-205 -562h-135z" />
<glyph unicode="#" horiz-adv-x="1611" d="M45 324l68 182h260l145 407h-262l63 183h265l123 340h182l-121 -340h389l121 340h182l-121 -340h260l-65 -183h-258l-143 -407h258l-66 -182h-258l-113 -324h-182l113 324h-389l-113 -324h-190l114 324h-262zM561 506h389l144 407h-389z" />
<glyph unicode="$" horiz-adv-x="1226" d="M41 121l72 172q248 -143 462 -135q140 3 208.5 64.5t68.5 156.5q0 23 -4.5 43t-10.5 36.5t-20 32.5t-24.5 27t-32.5 24.5t-36 21.5t-43 20.5t-45.5 19t-51 20.5t-52.5 21q-48 20 -80 35.5t-74 40.5t-69 53t-52 65t-37.5 86t-12.5 107q0 86 28.5 159t87 132.5t158.5 95 t232 39.5l32 182h123l-32 -186q194 -19 391 -133l-80 -176q-214 129 -418 129q-65 0 -115.5 -12.5t-81.5 -33t-51 -48.5t-27.5 -55.5t-7.5 -57.5q0 -37 13 -67.5t33.5 -53.5t59 -46.5t77 -41.5t100.5 -43q51 -21 86 -37t76 -38.5t68 -44t54.5 -51t43 -62t25.5 -74t10 -90.5 q0 -65 -15.5 -124t-52.5 -116t-93 -99.5t-143.5 -70.5t-197.5 -33l-31 -176h-137l31 178q-106 12 -219 51.5t-193 92.5z" />
<glyph unicode="%" horiz-adv-x="1751" d="M176 1055q0 190 101.5 296.5t281.5 106.5q133 0 212 -77.5t79 -211.5q0 -191 -100 -296t-281 -105q-133 0 -213 77.5t-80 209.5zM270 0l1080 1436h174l-1075 -1436h-179zM340 1073q0 -85 41.5 -127.5t112.5 -42.5q89 0 140.5 66t51.5 180q0 85 -40 127.5t-111 42.5 q-89 0 -142 -66.5t-53 -179.5zM948 266q0 191 101.5 297.5t281.5 106.5q133 0 212 -77t79 -210q0 -192 -100.5 -297.5t-280.5 -105.5q-133 0 -213 77t-80 209zM1112 287q0 -85 41.5 -127.5t112.5 -42.5q89 0 140.5 65t51.5 178q0 87 -40 129.5t-111 42.5q-89 0 -142 -66.5 t-53 -178.5z" />
<glyph unicode="&#x26;" horiz-adv-x="1345" d="M39 324q0 73 23.5 137t57.5 110t89.5 91t102 73.5t112.5 63.5q-63 93 -90 156t-27 143q0 86 32 155.5t86 113t122.5 66.5t144.5 23q140 0 231 -72.5t91 -207.5q0 -70 -27 -130.5t-79.5 -110t-108 -86t-133.5 -77.5l258 -377q95 103 206 277l142 -80q-125 -202 -254 -334 l178 -258h-223l-92 135q-211 -158 -443 -158q-84 0 -155 20.5t-126.5 61.5t-86.5 109t-31 156zM246 373q0 -105 64.5 -160t172.5 -55q156 0 305 110l-288 418q-58 -32 -98 -59.5t-78.5 -65.5t-58 -85t-19.5 -103zM492 1098q0 -48 21 -92t75 -121q122 68 181.5 129t59.5 139 q0 65 -39.5 101t-103.5 36q-78 0 -136 -51.5t-58 -140.5z" />
<glyph unicode="'" horiz-adv-x="530" d="M211 872l106 562h232l-201 -562h-137z" />
<glyph unicode="(" horiz-adv-x="735" d="M84 348q0 164 36 321.5t90 278t128 232t139 185t133 134.5h244q-41 -35 -81 -73.5t-96.5 -104t-105.5 -135.5t-99.5 -165.5t-86 -195.5t-58 -225t-22.5 -254q0 -132 23 -261t58 -225.5t71 -165.5t69 -108h-225q-81 104 -149 309.5t-68 452.5z" />
<glyph unicode=")" horiz-adv-x="741" d="M-139 -414q41 35 80 73.5t96.5 104t105.5 135t99.5 165t86.5 195.5t58 225t23 255q0 132 -23 261t-59.5 225.5t-72.5 165.5t-69 108h228q81 -104 149 -310.5t68 -453.5q0 -164 -36 -321.5t-90 -277.5t-128.5 -231.5t-139 -184t-133.5 -134.5h-243z" />
<glyph unicode="*" horiz-adv-x="845" d="M193 1178l249 53l-200 153l94 101l172 -193l35 256l129 -35l-84 -241l239 100l37 -131l-250 -53l203 -156l-96 -100l-170 194l-35 -254l-129 33l82 242l-238 -100z" />
<glyph unicode="+" horiz-adv-x="1124" d="M113 606l28 158h375l70 391h162l-68 -391h387l-29 -158h-387l-67 -377h-164l67 377h-374z" />
<glyph unicode="," horiz-adv-x="518" d="M6 -215q70 30 123.5 86.5t54.5 132.5q-24 -16 -51 -16q-39 0 -61.5 23.5t-22.5 64.5q0 55 35.5 86t93.5 31q62 0 97.5 -43.5t35.5 -112.5q0 -104 -76.5 -187.5t-183.5 -123.5z" />
<glyph unicode="-" horiz-adv-x="1032" d="M115 467l30 162h744l-31 -162h-743z" />
<glyph unicode="." horiz-adv-x="493" d="M53 90q5 53 34.5 83t82.5 30q56 0 87.5 -28t27.5 -83q-3 -53 -33.5 -82.5t-85.5 -29.5q-54 0 -85.5 28t-27.5 82z" />
<glyph unicode="/" horiz-adv-x="978" d="M-186 -348l1144 1849h191l-1149 -1849h-186z" />
<glyph unicode="0" horiz-adv-x="1454" d="M125 610q4 135 33 258.5t87 231t139 186.5t194.5 124.5t248.5 45.5q126 0 230 -41t179 -119t114.5 -198.5t35.5 -272.5q-4 -136 -33.5 -259.5t-87.5 -231.5t-139 -187t-195 -124.5t-249 -45.5q-125 0 -228.5 41t-178.5 119t-114.5 199t-35.5 274zM358 621 q-6 -227 85 -343t253 -116q91 0 166.5 36t127 97.5t88.5 146t55 177t22 194.5q6 227 -85.5 343t-254.5 116q-91 0 -166 -35.5t-126.5 -96.5t-88 -145t-54.5 -177t-22 -197z" />
<glyph unicode="1" horiz-adv-x="778" d="M137 1243l426 193h174l-252 -1436h-225l215 1217l-276 -132z" />
<glyph unicode="2" horiz-adv-x="1243" d="M12 0l31 170l641 473q145 112 206.5 199t61.5 188q0 122 -75.5 184t-202.5 62q-166 0 -393 -119l-45 174q104 59 235.5 94t257.5 35q213 0 336 -103t123 -302q0 -81 -23.5 -152.5t-74 -138.5t-118 -128t-165.5 -132l-447 -320h691l-33 -184h-1006z" />
<glyph unicode="3" horiz-adv-x="1161" d="M-23 98l62 162q72 -40 180 -70t219 -30q163 0 259 72.5t96 203.5q0 71 -29.5 121t-79 75t-100 35.5t-107.5 10.5h-147l26 164h150q67 0 126.5 12.5t111 38t82 71.5t30.5 107q0 99 -75 150t-189 51q-147 0 -342 -76l-39 166q86 42 209.5 70t228.5 28q120 0 218 -38 t160.5 -121t62.5 -199q0 -134 -89 -228t-251 -118q136 -36 206 -127t70 -221q0 -141 -75.5 -240.5t-199.5 -146t-284 -46.5q-141 0 -275 35t-215 88z" />
<glyph unicode="4" horiz-adv-x="1302" d="M23 328l24 159l930 949h213l-168 -942h180l-26 -166h-183l-57 -328h-217l57 328h-753zM293 494h514l115 655z" />
<glyph unicode="5" horiz-adv-x="1224" d="M12 117l90 151q194 -116 408 -116q84 0 153.5 19.5t122 57.5t82 100t29.5 142q0 134 -79 206.5t-208 72.5q-78 0 -143.5 -25.5t-144.5 -75.5l-129 86l172 699h831l-33 -179h-661l-101 -409q132 63 283 63q215 0 332 -113t117 -315q0 -243 -165.5 -375.5t-439.5 -132.5 q-289 0 -516 144z" />
<glyph unicode="6" horiz-adv-x="1341" d="M123 463q-14 214 55.5 428t210.5 358q204 207 504 207q223 0 422 -115l-86 -157q-73 43 -168.5 67.5t-181.5 24.5q-217 0 -357 -160q-118 -140 -164 -375q148 172 418 172q137 0 241 -49t163 -150t53 -241q-9 -220 -162.5 -358t-415.5 -138q-244 0 -382.5 131.5 t-149.5 354.5zM358 457q-15 -139 67.5 -224.5t227.5 -85.5q62 0 118 17t105.5 51.5t81.5 96t37 143.5q10 144 -73 220.5t-220 76.5q-144 0 -237 -80.5t-107 -214.5z" />
<glyph unicode="7" horiz-adv-x="1140" d="M115 0l815 1243h-754l33 191h1010l-29 -166l-805 -1268h-270z" />
<glyph unicode="8" horiz-adv-x="1329" d="M78 383q3 142 101.5 248t279.5 139q-113 34 -169.5 115t-53.5 184q3 178 151 283.5t381 105.5q224 0 356 -105t129 -274q-4 -130 -87.5 -214t-233.5 -115q144 -33 222 -127.5t73 -223.5q-3 -132 -78.5 -228.5t-208 -146t-305.5 -49.5q-259 0 -409.5 110t-147.5 298z M313 399q-3 -119 85.5 -190.5t242.5 -71.5q153 0 250 73t100 202q5 119 -80 187.5t-237 68.5q-157 0 -257 -73t-104 -196zM457 1051q-3 -99 71.5 -156t204.5 -57q132 0 214 59t85 162q3 104 -70.5 166.5t-201.5 62.5q-130 0 -215 -64.5t-88 -172.5z" />
<glyph unicode="9" horiz-adv-x="1329" d="M84 92l84 158q75 -43 171 -67.5t185 -24.5q223 0 357 161q110 128 149 355q-144 -154 -414 -154q-135 0 -238.5 48.5t-163.5 150t-54 242.5q8 222 159.5 358.5t411.5 136.5q249 0 387.5 -131.5t149.5 -370.5q15 -205 -52 -417t-202 -353q-200 -207 -504 -207 q-230 0 -426 115zM395 979q-7 -145 76 -221t217 -76q146 0 240 80t104 215q13 138 -70 223.5t-227 85.5q-48 0 -93 -9.5t-89 -32.5t-77 -57t-55.5 -87.5t-25.5 -120.5z" />
<glyph unicode=":" horiz-adv-x="518" d="M53 90q5 53 34.5 83t82.5 30q56 0 87.5 -28t27.5 -83q-3 -53 -33.5 -82.5t-85.5 -29.5q-54 0 -85.5 28t-27.5 82zM182 817q10 115 117 115q56 0 87.5 -28.5t27.5 -82.5q-3 -53 -33.5 -82.5t-85.5 -29.5q-54 0 -85.5 27.5t-27.5 80.5z" />
<glyph unicode=";" horiz-adv-x="552" d="M14 -217q70 29 123 86.5t56 134.5q-24 -16 -52 -16q-39 0 -61.5 23t-22.5 65q0 53 35.5 85t93.5 32q62 0 97.5 -43.5t35.5 -112.5q0 -106 -76 -189.5t-184 -123.5zM201 817q3 53 32.5 84t81.5 31q54 0 88 -31t31 -80q-1 -55 -33 -83.5t-88 -28.5q-52 0 -84 28t-28 80z " />
<glyph unicode="&#x3c;" horiz-adv-x="1191" d="M74 598l30 180l1119 371l-33 -193l-879 -274l781 -276l-31 -177z" />
<glyph unicode="=" horiz-adv-x="1103" d="M137 422l27 145h799l-25 -145h-801zM199 786l24 146h799l-25 -146h-798z" />
<glyph unicode="&#x3e;" horiz-adv-x="1189" d="M23 229l34 191l877 276l-780 273l32 180l985 -371l-30 -178z" />
<glyph unicode="?" horiz-adv-x="999" d="M199 1343q217 113 411 113q83 0 154 -19.5t127.5 -58t88.5 -102.5t32 -146q0 -74 -23.5 -134.5t-61.5 -101.5t-85 -75t-96.5 -64.5t-93 -61.5t-77 -73.5t-45.5 -93.5q-9 -41 -22 -129h-166q5 63 23 156q14 61 46.5 112.5t73 87t86 67t88.5 60.5t78.5 60.5t56.5 73.5 t21 92q0 92 -64.5 136t-170.5 44q-146 0 -326 -90zM270 88q3 54 36 84.5t89 30.5q55 0 88 -28.5t29 -84.5q-3 -53 -36 -84t-89 -31q-55 0 -88 28t-29 85z" />
<glyph unicode="@" horiz-adv-x="1912" d="M92 526q0 195 67 360t189 283t301 184t395 66q176 0 322.5 -44.5t255 -130t169 -219.5t60.5 -304q0 -246 -120.5 -397.5t-323.5 -151.5q-202 0 -225 156q-90 -154 -305 -154q-165 0 -258 103t-91 272q2 88 27 166t73 141.5t126.5 101t177.5 37.5q200 0 280 -149l33 139 h154l-96 -545q-24 -153 124 -153q95 0 161 64.5t94 160t28 211.5q0 123 -35 222t-96 165t-147 110t-183 63.5t-209 19.5q-186 0 -338 -56.5t-255 -158t-158.5 -244.5t-55.5 -314q0 -166 51.5 -292.5t145 -203.5t216 -115t272.5 -38q244 0 481 94l16 -112q-261 -94 -495 -94 q-394 0 -611 200t-217 557zM692 553q-1 -119 57.5 -185.5t163.5 -66.5q73 0 126 31t80.5 82.5t39.5 104.5t12 110q0 116 -53.5 178.5t-159.5 62.5q-74 0 -129 -30.5t-83 -80t-41 -101t-13 -105.5z" />
<glyph unicode="A" horiz-adv-x="1468" d="M-61 0l794 1438h305l305 -1438h-231l-72 354h-667l-191 -354h-243zM465 530h543l-146 711h-2z" />
<glyph unicode="B" horiz-adv-x="1435" d="M74 0l252 1434h645q168 0 272.5 -99t104.5 -254q0 -79 -28.5 -145t-74 -106.5t-95 -65t-99.5 -31.5q51 -11 96.5 -35t83.5 -63t60 -97.5t22 -129.5q0 -188 -137 -298t-357 -110h-745zM334 176h481q113 0 189.5 72t76.5 178q0 88 -56 153.5t-153 65.5h-456zM446 809h428 q108 0 179 66.5t71 168.5q0 91 -59 152t-158 61h-385z" />
<glyph unicode="C" horiz-adv-x="1402" d="M117 657q0 176 65 326.5t177 253.5t265.5 161t327.5 58q266 0 475 -137l-79 -160q-181 115 -390 115q-115 0 -213 -32t-168.5 -88t-120 -131.5t-74 -163.5t-24.5 -183q0 -246 136.5 -381t359.5 -135q180 0 381 90l45 -164q-212 -109 -459 -109q-117 0 -221.5 26.5 t-193.5 81.5t-153 134t-100 191t-36 247z" />
<glyph unicode="D" horiz-adv-x="1550" d="M76 0l254 1434h413q164 0 296.5 -39.5t230 -118t150.5 -203t53 -287.5q0 -170 -56.5 -314t-160.5 -249t-260 -164t-347 -59h-573zM336 182h328q254 0 411.5 167.5t157.5 432.5q0 225 -120 347t-339 122h-248z" />
<glyph unicode="E" horiz-adv-x="1327" d="M76 0l252 1434h1026l-31 -177h-797l-84 -469h688l-32 -176h-686l-76 -436h815l-31 -176h-1044z" />
<glyph unicode="F" horiz-adv-x="1265" d="M76 0l252 1434h1026l-31 -177h-799l-86 -489h688l-30 -176h-688l-105 -592h-227z" />
<glyph unicode="G" horiz-adv-x="1562" d="M225.5 1070q106.5 185 298 285.5t437.5 100.5q157 0 277 -29.5t241 -97.5l-93 -162q-201 107 -419 107q-152 0 -269.5 -47t-190.5 -131.5t-110.5 -195.5t-38.5 -245v-7q0 -216 128 -350q131 -136 374 -136q183 0 342 88l53 317h-372l26 166h557l-100 -588 q-256 -168 -545 -168q-321 0 -512 175q-190 173 -190 490q0 243 106.5 428z" />
<glyph unicode="H" horiz-adv-x="1572" d="M74 0l252 1434h227l-113 -635h754l113 635h227l-252 -1434h-229l110 623h-753l-109 -623h-227z" />
<glyph unicode="I" horiz-adv-x="595" d="M74 0l256 1434h227l-256 -1434h-227z" />
<glyph unicode="J" horiz-adv-x="1142" d="M-2 242l145 110q90 -192 275 -192q111 0 186.5 73t102.5 224l174 977h227l-174 -983q-40 -231 -168.5 -352.5t-341.5 -121.5q-84 0 -155 20.5t-114 48.5t-78 68t-50.5 68t-28.5 60z" />
<glyph unicode="K" horiz-adv-x="1427" d="M76 0l252 1434h227l-131 -744l803 744h270l-602 -553l381 -881h-268l-301 709l-332 -306l-72 -403h-227z" />
<glyph unicode="L" horiz-adv-x="1171" d="M74 0l254 1434h227l-221 -1254h733l-35 -180h-958z" />
<glyph unicode="M" horiz-adv-x="1916" d="M74 0l254 1434h315l275 -1053l626 1053h334l-254 -1434h-229l151 846l72 325h-2l-637 -1026h-207l-276 1026h-4l-39 -325l-152 -846h-227z" />
<glyph unicode="N" horiz-adv-x="1548" d="M74 0l254 1434h237l527 -1067l188 1067h229l-254 -1434h-237l-522 1083l-195 -1083h-227z" />
<glyph unicode="O" horiz-adv-x="1675" d="M123 647q1 78 15 156t44 158.5t73.5 152t108.5 134.5t145 108.5t186.5 72.5t228.5 27q313 -2 497 -180q178 -173 178 -469v-19q-2 -112 -28 -220.5t-87 -216.5t-149.5 -189t-226 -131.5t-307.5 -50.5q-315 0 -499 178q-180 174 -179 476v13zM362 643v-14q0 -219 118 -341 q122 -126 327 -126q112 0 205.5 38t156 100t106 145t63.5 169.5t22 176.5v22q0 215 -115 335q-121 126 -325 126q-113 0 -207 -38t-156.5 -100.5t-106.5 -145.5t-65 -170t-23 -177z" />
<glyph unicode="P" horiz-adv-x="1417" d="M74 0l254 1434h618q117 0 209 -37t147.5 -100t84 -141.5t28.5 -166.5q0 -71 -18.5 -139.5t-60.5 -132t-102.5 -111t-151 -76t-199.5 -28.5h-494l-88 -502h-227zM422 678h432q157 0 239.5 89.5t82.5 215.5q0 52 -15.5 98.5t-48 87t-90 64.5t-133.5 24h-365z" />
<glyph unicode="Q" horiz-adv-x="1710" d="M123 647q1 78 15 156t44 158.5t73.5 152t108.5 134.5t145 108.5t186.5 72.5t228.5 27q313 -2 497 -180q178 -173 178 -469v-19q-2 -92 -20.5 -183t-59 -184t-100.5 -170t-151 -140.5t-203 -96.5q236 -90 391 -116l-57 -181q-267 63 -600 263q-313 0 -497 178 q-179 174 -179 476v13zM362 643v-14q0 -219 118 -341q122 -126 327 -126q112 0 205.5 38t156 100t106 145t63.5 169.5t22 176.5v22q0 215 -116 335q-121 126 -326 126q-113 0 -206 -38t-155.5 -100t-106.5 -145t-65 -170t-23 -178z" />
<glyph unicode="R" horiz-adv-x="1470" d="M94 0l254 1434h676q102 0 183.5 -33t133.5 -89.5t79.5 -130t27.5 -157.5q0 -157 -102 -272.5t-277 -151.5l186 -600h-235l-166 578h-43h-387l-102 -578h-228zM455 754h454q136 0 217.5 74.5t81.5 189.5q0 104 -60 171.5t-175 67.5h-428z" />
<glyph unicode="S" horiz-adv-x="1251" d="M10 147l80 181q278 -164 535 -164q129 0 208.5 55t79.5 154q0 38 -13 67.5t-39 53t-66 43.5t-93 40.5t-121 45.5l-18 6q-54 20 -86.5 33.5t-76 35.5t-70 41.5t-55.5 49t-44 62.5t-25.5 77t-10.5 96q0 145 71.5 244t189 143.5t273.5 44.5q69 0 140.5 -11t118.5 -22 t109.5 -34.5t80 -31t63.5 -28.5l-76 -178q-133 66 -234.5 94.5t-199.5 28.5q-84 0 -145 -18.5t-92.5 -50t-45.5 -66t-14 -74.5q0 -37 14 -67.5t33.5 -51t63 -44t77 -37.5t101.5 -40q55 -21 87 -33.5t76.5 -31.5t70 -33t58 -35t50.5 -40.5t38 -45.5t29.5 -54.5t16 -63.5 t6.5 -76q0 -210 -146.5 -322.5t-394.5 -112.5q-166 0 -327.5 48t-276.5 122z" />
<glyph unicode="T" horiz-adv-x="1241" d="M143 1257l33 177h1190l-33 -177h-481l-223 -1257h-228l224 1257h-482z" />
<glyph unicode="U" horiz-adv-x="1505" d="M156 432q0 67 4 98l159 904h228l-160 -906q-6 -34 -6 -69q0 -128 83 -213.5t241 -85.5q162 0 255.5 87t118.5 224l172 963h228l-168 -945q-20 -112 -66.5 -203.5t-120.5 -161.5t-183 -108.5t-245 -38.5q-114 0 -207 27t-154 71.5t-102 104.5t-59 123t-18 129z" />
<glyph unicode="V" horiz-adv-x="1382" d="M168 1434h238l208 -1192l621 1192h254l-768 -1434h-299z" />
<glyph unicode="W" horiz-adv-x="2023" d="M184 1434h238l108 -1168l490 1155h258l88 -1132l498 1145h258l-656 -1434h-282l-88 1102l-478 -1102h-282z" />
<glyph unicode="X" horiz-adv-x="1374" d="M-98 0l661 702l-409 732h266l307 -553l506 553h268l-653 -707l399 -727h-264l-293 547l-500 -547h-288z" />
<glyph unicode="Y" horiz-adv-x="1341" d="M190 1434h228l272 -686l516 686h244l-672 -873l-98 -561h-227l100 567z" />
<glyph unicode="Z" horiz-adv-x="1284" d="M-35 0l27 152l1016 1110l-402 -5h-389l33 177h1091l-24 -150l-1014 -1114l410 6h420l-33 -176h-1135z" />
<glyph unicode="[" horiz-adv-x="634" d="M0 -373l322 1829h372l-28 -166h-197l-266 -1497h198l-28 -166h-373z" />
<glyph unicode="\" horiz-adv-x="1001" d="M229 1501h166l414 -1575h-166z" />
<glyph unicode="]" horiz-adv-x="634" d="M-74 -373l29 164h197l264 1497h-197l29 168h373l-322 -1829h-373z" />
<glyph unicode="_" horiz-adv-x="1198" d="M-14 -291l28 152h912l-29 -152h-911z" />
<glyph unicode="`" horiz-adv-x="559" d="M279 1466h194l88 -303h-151z" />
<glyph unicode="a" horiz-adv-x="1306" d="M76 471q0 95 21.5 183t66 166t107.5 136t153.5 91.5t196.5 33.5q135 0 238.5 -59t148.5 -158l45 201h202l-141 -803l-33 -262h-200l18 152q-133 -168 -371 -168q-217 0 -333.5 132.5t-118.5 354.5zM293 477q0 -153 80.5 -241.5t220.5 -88.5q77 0 140 29t103 74.5t67 106 t38.5 119.5t11.5 118q0 150 -79 238t-220 88q-76 0 -138 -28t-103 -73t-69 -104t-40 -119t-12 -119z" />
<glyph unicode="b" horiz-adv-x="1306" d="M39 0l262 1499h215l-96 -557q62 66 151.5 102.5t194.5 36.5q217 0 332.5 -132.5t115.5 -358.5q0 -119 -33.5 -225.5t-98 -192.5t-170.5 -136.5t-240 -51.5h-5q-139 0 -237 58q-100 58 -147 161l-43 -203h-201zM342 479q0 -151 79 -241.5t218 -90.5q77 0 139 28t101.5 73 t66.5 104t38 116.5t11 115.5q0 153 -78 242t-219 89q-76 0 -138.5 -28.5t-102 -74t-66.5 -104.5t-38 -116t-11 -113z" />
<glyph unicode="c" horiz-adv-x="1116" d="M74 481q0 179 80.5 316.5t220.5 210.5t317 73q199 0 365 -92l-76 -149q-139 73 -291 73q-184 0 -290.5 -114.5t-106.5 -296.5q0 -174 96 -262t258 -88q146 0 273 67l41 -156q-169 -79 -353 -79q-107 0 -200.5 28t-169.5 85.5t-120 156t-44 227.5z" />
<glyph unicode="d" horiz-adv-x="1320" d="M78 469q0 121 34.5 229t100 195t171.5 138t239 52q135 0 237.5 -57.5t145.5 -155.5l112 629h215l-217 -1237l-33 -262h-186l21 168q-66 -89 -166.5 -136.5t-221.5 -47.5q-218 0 -334 130.5t-118 354.5zM297 477q0 -151 80.5 -239t220.5 -88q77 0 139.5 28.5t102.5 74.5 t67.5 105.5t39 118.5t11.5 117q0 149 -79 235t-222 86q-93 0 -165.5 -41.5t-113.5 -108t-61 -140t-20 -148.5z" />
<glyph unicode="e" horiz-adv-x="1191" d="M101 649q28 92 83.5 170t132.5 136.5t181 92t223 33.5q85 0 155.5 -16t127.5 -50.5t89 -94.5q31 -58 31 -137v-5q-2 -338 -575 -338q-139 0 -258 21q1 -157 90.5 -238.5t247.5 -81.5q89 0 184 24.5t160 59.5l43 -145q-83 -49 -201.5 -72.5t-224.5 -23.5q-242 0 -380 122 t-138 350q0 98 29 193zM307 596q98 -16 217 -16q81 0 143.5 7.5t120.5 26.5q58 20 90 60q33 41 33 99q0 77 -54 111q-55 34 -152 34q-148 0 -254.5 -91.5t-143.5 -230.5z" />
<glyph unicode="f" horiz-adv-x="753" d="M57 -225l201 1138h-164l27 152h164l22 123q13 76 34.5 131t60.5 102t103.5 71t153.5 24q132 0 232 -29l-45 -154q-68 21 -146 21t-121.5 -41.5t-58.5 -124.5l-22 -123h290l-24 -152h-293l-199 -1138h-215z" />
<glyph unicode="g" horiz-adv-x="1286" d="M14 -225l64 155q73 -48 183.5 -81t225.5 -33q153 0 245.5 64.5t119.5 211.5l10 66q-122 -119 -340 -119q-203 0 -324 122q-116 118 -116 344v15q6 256 152.5 408.5t381.5 152.5q141 0 241 -58t144 -151l43 193h197l-170 -965q-39 -229 -178 -340.5t-401 -111.5 q-275 0 -478 127zM303 530v-19q0 -141 70 -223q75 -89 219 -89q87 0 155 32.5t109 88t62.5 125.5t23.5 151v12q0 145 -73 226q-76 84 -220 84q-108 0 -187.5 -54.5t-118 -141t-40.5 -192.5z" />
<glyph unicode="h" horiz-adv-x="1236" d="M39 0l264 1499h215l-102 -577q127 159 360 159q96 0 166 -28.5t109 -79t57 -111t18 -133.5q0 -56 -10 -121l-108 -608h-213l104 606q10 56 10 88q0 104 -53.5 164t-165.5 60q-134 0 -221 -95t-117 -264l-98 -559h-215z" />
<glyph unicode="i" d="M76 0l162 913h-132l29 152h344l-188 -1065h-215zM266 1341q6 107 119 107q63 0 93 -27q28 -25 29 -67q0 -4 -1 -8q-3 -107 -123 -107q-59 0 -89 26q-28 24 -28 67v9z" />
<glyph unicode="j" horiz-adv-x="563" d="M-123 -362l31 176h57q65 0 89.5 24.5t35.5 93.5l174 981h-141l27 152h356l-205 -1159q-25 -153 -97.5 -210.5t-205.5 -57.5h-121zM295 1337q3 49 35 77t86 28q62 0 92 -28q27 -24 27 -68v-9q-6 -106 -125 -106q-58 0 -88 27q-27 24 -27 67v12z" />
<glyph unicode="k" horiz-adv-x="1124" d="M41 0l264 1499h215l-168 -938l574 504h245l-460 -403l286 -662h-225l-223 520l-240 -211l-53 -309h-215z" />
<glyph unicode="l" horiz-adv-x="569" d="M72 215l227 1284h215l-225 -1268q-2 -14 -3 -26q0 -26 14 -38q18 -17 58 -17q61 0 88 6l-20 -158q-79 -14 -168 -14q-119 0 -164 52q-30 34 -30 102q0 34 8 77z" />
<glyph unicode="m" horiz-adv-x="1851" d="M45 0l143 807l25 258h195l-15 -141q61 76 151 116.5t187 40.5q116 0 190 -55t107 -149q61 96 160 150t221 54q72 0 129 -17.5t94 -49t62 -73t35 -92t10 -104t-10 -110.5l-111 -635h-215l113 635q9 37 9 73q1 15 -1 31q-6 51 -24.5 90.5t-63 64t-109.5 24.5 q-105 0 -176.5 -81t-101.5 -219l-7 -38l-102 -580h-215l115 651q8 33 8 72q0 85 -48 140t-147 55q-66 0 -119 -28.5t-86 -76.5t-53 -103t-28 -116l-2 4l-105 -598h-215z" />
<glyph unicode="n" horiz-adv-x="1228" d="M31 0l137 782l33 283h194l-18 -172q71 92 175.5 140t227.5 48q176 0 259 -91t83 -240q0 -59 -12 -121l-111 -629h-215l111 627q8 54 8 80q0 95 -49.5 153t-159.5 58q-144 0 -233 -101t-117 -260l-98 -557h-215z" />
<glyph unicode="o" horiz-adv-x="1284" d="M86 477q2 173 71.5 308.5t207 215.5t323.5 80q224 1 364 -129q137 -127 136 -354v-10q-2 -129 -42.5 -239t-115 -191.5t-188.5 -127.5t-254 -46q-227 0 -365 129t-137 364zM305 471q0 -153 80 -235q81 -84 217 -84q89 0 160 37t115 99.5t67 139.5t25 162v11 q1 147 -79 228q-82 84 -220 84q-88 0 -159 -37.5t-115 -100t-67 -139.5q-24 -81 -24 -165z" />
<glyph unicode="p" horiz-adv-x="1306" d="M-23 -348l201 1130l31 283h186l-18 -168q69 87 169.5 135.5t219.5 48.5q218 0 334.5 -131t116.5 -356q0 -95 -21 -183.5t-65 -166t-107 -135.5t-153 -92t-197 -35q-140 0 -240 57t-143 158l-98 -545h-216zM340 471q0 -149 79 -236.5t220 -87.5q76 0 138 28t102 73 t67.5 104t39 118t11.5 118q0 152 -78.5 238.5t-218.5 86.5q-77 0 -139.5 -28.5t-102.5 -74t-67.5 -104.5t-39 -118t-11.5 -117z" />
<glyph unicode="q" horiz-adv-x="1298" d="M78 465q0 120 34.5 228.5t100.5 195t171.5 139t236.5 53.5h4q139 0 240 -61q103 -62 147 -166l45 211h198l-249 -1415h-215l83 481q-128 -147 -344 -147q-218 0 -334 130t-118 351zM297 469q0 -146 81 -234t222 -88q75 0 136.5 29t101.5 75t67.5 105.5t39 119.5t11.5 118 q0 149 -79 236.5t-218 87.5q-93 0 -165.5 -44t-113.5 -113t-62 -144t-21 -148z" />
<glyph unicode="r" horiz-adv-x="741" d="M41 0l143 819l29 246h195l-23 -201q24 50 57.5 91t81.5 73q48 34 104 42q22 3 46 3q37 0 80 -8l-47 -211q-29 4 -55 4q-116 0 -188 -76q-88 -92 -122 -286l-86 -496h-215z" />
<glyph unicode="s" horiz-adv-x="1011" d="M-2 117l68 137q197 -117 376 -117q103 2 164.5 40t61.5 114q0 63 -48.5 95t-175.5 71q-32 9 -47 13.5t-46 15t-48 19t-43 23t-40.5 29t-32.5 36t-27.5 44.5t-16 53.5t-6.5 65.5q0 83 33 146.5t91 101.5t132.5 57.5t161.5 19.5q177 0 403 -98l-67 -137q-174 82 -320 82 q-111 0 -164 -38t-53 -104q0 -25 9.5 -45t25 -34t40.5 -26.5t52 -22t63 -21.5q9 -3 13 -4q49 -16 75.5 -25.5t66.5 -27t62.5 -32.5t49.5 -38.5t41 -50t23.5 -62t9.5 -78.5q0 -166 -119.5 -250.5t-312.5 -84.5q-245 0 -455 133z" />
<glyph unicode="t" horiz-adv-x="782" d="M92 913l27 152h151l86 309h183l-54 -309h299l-28 -152h-299l-107 -598q-8 -58 -8 -77q0 -52 31.5 -75.5t93.5 -23.5t151 27l-14 -143q-38 -18 -105.5 -28.5t-125.5 -10.5q-73 0 -123.5 15.5t-77.5 45.5t-38 65.5t-11 82.5q0 34 12 116l107 604h-150z" />
<glyph unicode="u" horiz-adv-x="1255" d="M90 315q0 59 12 121l111 629h215l-109 -627q-8 -54 -8 -82q0 -93 49.5 -151t157.5 -58q145 0 233.5 100.5t116.5 260.5l99 557h215l-138 -782l-30 -283h-195l17 166q-72 -90 -176.5 -136t-227.5 -46q-176 0 -259 91t-83 240z" />
<glyph unicode="v" horiz-adv-x="1101" d="M109 1065h217l135 -838l434 838h240l-588 -1065h-252z" />
<glyph unicode="w" horiz-adv-x="1703" d="M125 1065h209l88 -836l407 836h193l111 -825l372 823l230 2l-504 -1065h-248l-106 772l-377 -772h-250z" />
<glyph unicode="x" horiz-adv-x="1103" d="M-57 0l477 530l-293 535h231l215 -391l357 391h231l-479 -524l293 -541h-230l-215 397l-354 -397h-233z" />
<glyph unicode="y" horiz-adv-x="1167" d="M-59 -324l36 160q91 -26 154 -26q73 0 123 32t90 109l25 47l-250 1067h221l178 -862l436 862h236l-619 -1145q-47 -85 -93.5 -140.5t-97 -85.5t-99.5 -41t-113 -11q-101 0 -227 34z" />
<glyph unicode="z" horiz-adv-x="1069" d="M-27 0l31 166l776 754l-350 -7h-278l30 152h889l-29 -170l-770 -750l357 7h297l-31 -152h-922z" />
<glyph unicode="{" horiz-adv-x="688" d="M55 481l23 131h26q98 0 117 95l82 467q10 55 23 95t36.5 77t56 60t81 36.5t112.5 13.5h138l-29 -160h-86q-137 0 -162 -145l-80 -461q-9 -58 -47.5 -96t-105.5 -47q64 -7 87.5 -50.5t12.5 -109.5l-80 -446q-28 -144 109 -144h88l-29 -157h-96q-90 0 -147.5 23.5t-80 64 t-27.5 95t9 116.5l76 438q18 104 -74 104h-33z" />
<glyph unicode="|" horiz-adv-x="651" d="M244 -319v1941h174v-1941h-174z" />
<glyph unicode="}" horiz-adv-x="686" d="M-82 -360l29 157h86q137 0 162 146l79 463q9 57 47.5 94.5t106.5 46.5q-124 17 -100 160l80 444q28 145 -109 145h-90l29 160h98q90 0 147.5 -24t79 -65t26.5 -96.5t-9 -117.5l-76 -434q-15 -109 78 -109h30l-22 -131h-25q-103 0 -119 -90l-81 -469q-13 -69 -31.5 -116.5 t-53 -86.5t-90.5 -58t-135 -19h-137z" />
<glyph unicode="&#xa0;" />
<glyph unicode="&#xa1;" horiz-adv-x="540" d="M-20 -377l215 1022h176l-146 -1022h-245zM203 971q5 52 36.5 83t86.5 31q57 0 90.5 -28.5t29.5 -83.5q-3 -53 -35.5 -84t-88.5 -31q-57 0 -90 28.5t-29 84.5z" />
<glyph unicode="&#xa2;" horiz-adv-x="1110" d="M104 653q0 249 161 411t417 181l35 207h121l-37 -207q152 -17 278 -88l-69 -141q-45 26 -114.5 46.5t-147.5 20.5q-130 0 -228 -59.5t-146 -155t-48 -209.5q0 -159 92.5 -251.5t251.5 -92.5q144 0 268 72l53 -139q-154 -98 -342 -98h-41l-37 -205h-120l38 223 q-173 41 -279 161.5t-106 323.5z" />
<glyph unicode="&#xa3;" horiz-adv-x="1214" d="M0 0l27 156q10 1 27.5 5.5t61 28t77 59t61 107.5t27.5 166q0 50 -9 103h-157l20 116h119q-14 96 -14 195q0 133 41 234.5t115 163t169.5 92t210.5 30.5q237 0 428 -123l-92 -151q-92 53 -156 72q-84 26 -174 26q-154 0 -236.5 -86t-82.5 -256q0 -83 16 -197h500l-21 -116 h-458q6 -43 6 -88q0 -79 -19 -146t-50 -111t-58 -70t-55 -44h720l-28 -166h-1016z" />
<glyph unicode="&#xa5;" horiz-adv-x="1400" d="M217 1434h227l273 -660l500 660h253l-663 -856l-12 -62h245l-18 -100h-244l-16 -101h242l-17 -100h-242l-38 -215h-230l39 215h-244l19 100h241l17 101h-242l19 100h241l13 62z" />
<glyph unicode="&#xa7;" horiz-adv-x="1241" d="M27 -244l69 164q2 -1 19.5 -8t31.5 -12t40 -14t48.5 -15.5t54.5 -14t60.5 -12.5t62.5 -8.5t66 -3.5q142 0 216.5 51t74.5 129q0 25 -7.5 45t-26.5 36.5t-36.5 27.5t-53 24t-59 20t-71 20.5t-74.5 21.5q-60 18 -100.5 33.5t-88.5 42t-76.5 57t-48 77t-19.5 103.5 q0 55 21.5 110t56 97.5t70 74.5t71.5 54q-101 81 -101 217q0 167 133 265t371 98q251 0 483 -109l-69 -164q-2 1 -19.5 8t-31.5 12t-40 14t-48.5 15.5t-54.5 14t-60.5 12.5t-62.5 8.5t-66 3.5q-142 0 -217.5 -51t-75.5 -129q0 -25 8 -45t27 -36.5t37 -28t53.5 -24.5 t59 -20.5t71.5 -21t74 -21.5q60 -18 99.5 -33t87.5 -41.5t76.5 -56.5t48 -76.5t19.5 -103.5q0 -105 -68 -195.5t-149 -140.5q101 -81 101 -217q0 -166 -132.5 -264t-369.5 -98q-263 0 -485 108zM309 567q0 -38 16.5 -68t50 -52.5t68.5 -37t86 -30.5q25 -8 120 -36.5 t141 -47.5q141 110 141 221q0 28 -9 51.5t-29 42.5t-41 33t-55.5 28.5t-61 23.5t-68.5 22q-17 5 -55 16t-59 17.5t-50.5 17t-52.5 20.5q-142 -108 -142 -221z" />
<glyph unicode="&#xa8;" horiz-adv-x="825" d="M209 1298q2 47 30 75t78 28q58 0 88.5 -28t28.5 -75q-2 -51 -32 -78.5t-85 -27.5q-54 0 -82.5 27.5t-25.5 78.5zM653 1298q2 47 30.5 75t78.5 28q58 0 87.5 -28t27.5 -75q-3 -106 -115 -106q-54 0 -83 27.5t-26 78.5z" />
<glyph unicode="&#xa9;" horiz-adv-x="1687" d="M156 721q0 208 96.5 373t261.5 255.5t365 90.5t365.5 -90.5t262.5 -256t97 -372.5q0 -155 -57.5 -290t-155 -229t-231 -148t-281.5 -54t-281 54t-230.5 148t-154.5 229t-57 290zM250 719q0 -182 84 -326.5t227.5 -223.5t317.5 -79t317.5 79t228 223.5t84.5 326.5 t-85 327.5t-228.5 224.5t-316.5 79t-316.5 -79t-228 -224.5t-84.5 -327.5zM518 723q0 178 110 277.5t287 99.5q132 0 224 -47l-31 -107q-97 33 -168 33q-129 0 -195.5 -71t-66.5 -185q0 -115 66 -186.5t198 -71.5q84 0 174 37l25 -111q-99 -47 -228 -47q-176 0 -285.5 100.5 t-109.5 278.5z" />
<glyph unicode="&#xaa;" horiz-adv-x="1003" d="M139 436l25 129h698l-24 -129h-699zM221 907q0 138 98 202.5t265 64.5q84 0 161 -13l9 51q12 80 -19 114t-121 34q-115 0 -243 -39l-6 123q144 43 309 43q279 0 235 -248l-61 -352q-4 -21 1 -29t21 -8q6 0 24 1t19 1l-20 -117q-56 -14 -105 -14q-43 0 -71 21t-25 67v4 q-37 -37 -101.5 -65.5t-144.5 -28.5q-103 0 -164 48t-61 140zM360 930q0 -52 37.5 -81.5t98.5 -29.5q79 0 140.5 47t78.5 129l14 74q-68 14 -137 14q-232 0 -232 -153z" />
<glyph unicode="&#xab;" horiz-adv-x="1259" d="M72 510l8 45l512 481l102 -114l-393 -406l242 -391l-129 -96zM592 510l8 45l512 481l102 -114l-393 -406l242 -391l-129 -96z" />
<glyph unicode="&#xad;" horiz-adv-x="1032" d="M115 467l30 162h744l-31 -162h-743z" />
<glyph unicode="&#xae;" horiz-adv-x="1226" d="M240 1040q0 202 131 333.5t334 131.5q202 0 332 -131.5t130 -333.5q0 -198 -130.5 -328t-331.5 -130q-203 0 -334 130t-131 328zM309 1040q0 -171 109 -283t287 -112t285.5 112t107.5 283q0 174 -107.5 288t-285.5 114t-287 -114t-109 -288zM526 809v481h226 q67 0 109 -43t42 -108q0 -108 -90 -140l84 -190h-90l-70 178h-129v-178h-82zM610 1059h133q38 0 61 24t23 56q0 40 -23.5 61t-64.5 21h-129v-162z" />
<glyph unicode="&#xaf;" horiz-adv-x="708" d="M166 1235l22 125h623l-20 -125h-625z" />
<glyph unicode="&#xb0;" horiz-adv-x="679" d="M184 1178q3 135 87 205.5t208 70.5q51 0 96.5 -13t83 -40t58.5 -74t20 -108q-1 -138 -84.5 -210.5t-206.5 -72.5q-70 0 -127.5 23t-97 79.5t-37.5 139.5zM297 1178q-3 -79 44.5 -114.5t111.5 -35.5q76 0 122.5 47t49.5 137q1 80 -44.5 115t-107.5 35q-77 0 -126 -47 t-50 -137z" />
<glyph unicode="&#xb1;" horiz-adv-x="1155" d="M33 104l26 140h926l-24 -140h-928zM131 657l31 158h375l57 330h162l-58 -330h389l-30 -158h-387l-56 -317h-163l55 317h-375z" />
<glyph unicode="&#xb4;" horiz-adv-x="618" d="M297 1176l207 303h201l-246 -303h-162z" />
<glyph unicode="&#xb5;" horiz-adv-x="1286" d="M-4 -348l254 1413h215l-107 -594q-10 -59 -10 -98q0 -102 66 -164t184 -62q73 0 129.5 24.5t91.5 68t56 92.5t32 108l111 625h215l-148 -838l-24 -227h-182l6 139q-47 -68 -124.5 -115t-182.5 -47q-100 0 -176.5 41t-104.5 109l-86 -475h-215z" />
<glyph unicode="&#xb6;" horiz-adv-x="1241" d="M147 913q0 105 29.5 193t78.5 147.5t114 101t134.5 60.5t141.5 19h543l-285 -1610h-158l254 1450h-202l-256 -1450h-160l131 739h-51q-153 1 -233.5 98.5t-80.5 251.5z" />
<glyph unicode="&#xb7;" horiz-adv-x="583" d="M152 616q6 70 49.5 108t115.5 38q64 0 103 -38.5t33 -107.5q-6 -71 -49.5 -108t-114.5 -37q-65 0 -104 38.5t-33 106.5z" />
<glyph unicode="&#xb8;" horiz-adv-x="567" d="M-76 -385l23 90q61 -27 141 -27q105 0 105 66q0 70 -121 53l-27 41l90 182h119l-68 -133q23 0 46.5 -6t48.5 -19.5t41 -42t16 -67.5q0 -86 -69.5 -126t-170.5 -40q-105 0 -174 29z" />
<glyph unicode="&#xba;" horiz-adv-x="1091" d="M139 436l25 129h776l-25 -129h-776zM248 1065q6 190 123 306t317 116q166 0 264 -89t92 -253q-6 -190 -122 -306t-316 -116q-168 0 -266 89t-92 253zM406 1075q-4 -100 53.5 -157.5t161.5 -57.5q115 0 186 70.5t78 204.5q4 101 -54 158t-161 57q-117 0 -187.5 -70 t-76.5 -205z" />
<glyph unicode="&#xbb;" horiz-adv-x="1284" d="M35 143l393 404l-242 393l129 96l342 -481l-6 -45l-512 -481zM555 143l391 404l-239 393l129 96l342 -481l-7 -45l-512 -481z" />
<glyph unicode="&#xbf;" horiz-adv-x="985" d="M-16 -72q0 74 23 134.5t61.5 102t85 76t96 65.5t92.5 62t76.5 73.5t46.5 93.5q4 16 20 127h166q-3 -74 -22 -156q-14 -61 -46.5 -112.5t-73 -87t-86.5 -67t-89 -60.5t-78 -60.5t-56.5 -73.5t-21.5 -92q0 -91 65.5 -135.5t170.5 -44.5q141 0 325 92l58 -150 q-216 -110 -414 -110q-83 0 -153.5 19t-126.5 57t-87.5 101.5t-31.5 145.5zM481 971q3 52 35.5 82t87.5 30q57 0 90 -27.5t29 -84.5q-3 -54 -36.5 -84.5t-90.5 -30.5q-53 0 -86 29t-29 86z" />
<glyph unicode="&#xc0;" horiz-adv-x="1468" d="M-61 0l794 1438h305l305 -1438h-231l-72 354h-667l-191 -354h-243zM465 530h543l-146 711h-2zM748 1763h192l82 -231h-150z" />
<glyph unicode="&#xc1;" horiz-adv-x="1466" d="M-61 0l794 1438h305l305 -1438h-231l-72 354h-667l-191 -354h-243zM465 530h543l-146 711h-2zM764 1532l172 233h197l-209 -233h-160z" />
<glyph unicode="&#xc2;" horiz-adv-x="1468" d="M-61 0l794 1438h305l305 -1438h-231l-72 354h-667l-191 -354h-243zM465 530h543l-146 711h-2zM578 1532l274 233h192l183 -233h-164l-121 154l-186 -154h-178z" />
<glyph unicode="&#xc3;" horiz-adv-x="1466" d="M-61 0l794 1438h305l305 -1438h-231l-72 354h-667l-191 -354h-243zM465 530h543l-146 711h-2zM567 1610q82 174 224 174q54 0 135 -45q72 -45 116 -45q29 0 53.5 14.5t33.5 25.5t28 38l70 -35q-86 -174 -226 -174q-53 0 -127 43q-4 2 -17 9.5t-17.5 10t-16 8.5t-18.5 8 t-17 5.5t-19 4.5t-19 1q-41 0 -66.5 -20t-48.5 -56z" />
<glyph unicode="&#xc4;" horiz-adv-x="1468" d="M-61 0l794 1438h305l305 -1438h-231l-72 354h-667l-191 -354h-243zM465 530h543l-146 711h-2zM580 1661q2 47 28.5 73.5t75.5 26.5q56 0 84.5 -26.5t26.5 -73.5q-2 -48 -30 -74t-81 -26q-51 0 -79 26.5t-25 73.5zM1024 1661q2 47 28.5 73.5t75.5 26.5q56 0 84.5 -26.5 t26.5 -73.5q-2 -48 -30 -74t-81 -26q-51 0 -79 26.5t-25 73.5z" />
<glyph unicode="&#xc5;" horiz-adv-x="1468" d="M-61 0l794 1438h305l305 -1438h-231l-72 354h-667l-191 -354h-243zM465 530h543l-146 711h-2zM719 1722q4 100 66.5 153.5t156.5 53.5q93 0 154.5 -49t58.5 -143q-3 -103 -66 -157t-159 -54q-93 0 -154 49.5t-57 146.5zM827 1720q-4 -56 27 -82t76 -26q46 0 79.5 30.5 t37.5 92.5q3 57 -30 82.5t-79 25.5q-45 0 -76 -30.5t-35 -92.5z" />
<glyph unicode="&#xc6;" horiz-adv-x="2121" d="M-96 0l1030 1434h1214l-30 -177h-797l-82 -471h688l-33 -176h-688l-73 -434h819l-33 -176h-1047l68 381h-512l-264 -381h-260zM551 557h420l123 700h-56z" />
<glyph unicode="&#xc7;" horiz-adv-x="1400" d="M117 657q0 176 65 326.5t177 253.5t265.5 161t327.5 58q266 0 475 -137l-79 -160q-181 115 -390 115q-115 0 -213 -32t-168.5 -88t-120 -131.5t-74 -163.5t-24.5 -183q0 -246 136.5 -381t359.5 -135q180 0 381 90l45 -164q-212 -109 -459 -109q-15 0 -65 5l-47 -95 q23 0 46.5 -6t48.5 -19.5t40.5 -42t15.5 -67.5q0 -59 -36.5 -98t-88 -53.5t-114.5 -14.5q-106 0 -175 29l23 90q61 -27 141 -27q105 0 105 66q0 70 -121 53l-27 41l76 156q-115 23 -209.5 75t-166 133t-111 197t-39.5 258z" />
<glyph unicode="&#xc8;" horiz-adv-x="1327" d="M76 0l252 1434h1026l-31 -177h-797l-84 -469h688l-32 -176h-686l-76 -436h815l-31 -176h-1044zM684 1763h193l81 -231h-149z" />
<glyph unicode="&#xc9;" horiz-adv-x="1327" d="M76 0l252 1434h1026l-31 -177h-797l-84 -469h688l-32 -176h-686l-76 -436h815l-31 -176h-1044zM748 1532l172 233h196l-209 -233h-159z" />
<glyph unicode="&#xca;" horiz-adv-x="1325" d="M76 0l252 1434h1026l-31 -177h-797l-84 -469h688l-32 -176h-686l-76 -436h815l-31 -176h-1044zM541 1532l274 233h193l182 -233h-164l-121 154l-186 -154h-178z" />
<glyph unicode="&#xcb;" horiz-adv-x="1327" d="M76 0l252 1434h1026l-31 -177h-797l-84 -469h688l-32 -176h-686l-76 -436h815l-31 -176h-1044zM545 1661q2 47 28.5 73.5t75.5 26.5q56 0 84.5 -26.5t26.5 -73.5q-2 -48 -30 -74t-81 -26q-51 0 -79 26.5t-25 73.5zM989 1661q2 46 29 73t76 27q56 0 84 -26.5t26 -73.5 q-3 -100 -110 -100q-51 0 -79.5 26.5t-25.5 73.5z" />
<glyph unicode="&#xcc;" horiz-adv-x="595" d="M74 0l256 1434h227l-256 -1434h-227zM287 1763h192l82 -231h-149z" />
<glyph unicode="&#xcd;" horiz-adv-x="595" d="M74 0l256 1434h227l-256 -1434h-227zM350 1532l172 233h197l-209 -233h-160z" />
<glyph unicode="&#xce;" horiz-adv-x="595" d="M74 0l256 1434h227l-256 -1434h-227zM117 1532l274 233h193l182 -233h-164l-121 154l-186 -154h-178z" />
<glyph unicode="&#xcf;" horiz-adv-x="595" d="M74 0l256 1434h227l-256 -1434h-227zM147 1661q2 46 29 73t76 27q56 0 84 -26.5t26 -73.5q-3 -100 -110 -100q-51 0 -79.5 26.5t-25.5 73.5zM592 1661q2 47 28.5 73.5t75.5 26.5q56 0 84.5 -26.5t26.5 -73.5q-2 -48 -30 -74t-81 -26q-51 0 -79 26.5t-25 73.5z" />
<glyph unicode="&#xd0;" horiz-adv-x="1550" d="M23 633l20 139h168l119 662h413q164 0 296.5 -39.5t230 -118t150.5 -203t53 -287.5q0 -170 -56.5 -314t-160.5 -249t-260 -164t-347 -59h-573l110 633h-163zM336 182h328q254 0 411.5 167.5t157.5 432.5q0 225 -120 347t-339 122h-248l-86 -479h293l-20 -139h-297z" />
<glyph unicode="&#xd1;" horiz-adv-x="1548" d="M74 0l254 1434h237l527 -1067l188 1067h229l-254 -1434h-237l-522 1083l-195 -1083h-227zM641 1610q82 174 223 174q54 0 135 -45q72 -45 117 -45q29 0 53.5 14.5t33.5 25.5t28 38l69 -35q-86 -174 -225 -174q-53 0 -127 43q-3 2 -14.5 8.5t-16 8.5t-14.5 7.5t-15.5 7.5 t-15 6t-16.5 5t-15.5 2.5t-17.5 1.5q-41 0 -65.5 -19.5t-48.5 -56.5z" />
<glyph unicode="&#xd2;" horiz-adv-x="1673" d="M123 647q1 78 15 156t44 158.5t73.5 152t108.5 134.5t145 108.5t186.5 72.5t228.5 27q313 -2 497 -180.5t178 -487.5q-2 -112 -28 -220.5t-87 -216.5t-149.5 -189t-226 -131.5t-307.5 -50.5q-315 0 -498.5 178t-179.5 489zM362 643q-4 -229 118.5 -355t326.5 -126 q112 0 205.5 38t156 100t106 145t63.5 169.5t22 176.5q6 230 -115 356.5t-325 126.5q-113 0 -207 -38t-156.5 -100.5t-106.5 -145.5t-65 -170t-23 -177zM780 1763h193l82 -231h-150z" />
<glyph unicode="&#xd3;" horiz-adv-x="1675" d="M123 647q1 78 15 156t44 158.5t73.5 152t108.5 134.5t145 108.5t186.5 72.5t228.5 27q313 -2 497 -180.5t178 -487.5q-2 -112 -28 -220.5t-87 -216.5t-149.5 -189t-226 -131.5t-307.5 -50.5q-315 0 -498.5 178t-179.5 489zM362 643q-4 -229 118.5 -355t326.5 -126 q112 0 205.5 38t156 100t106 145t63.5 169.5t22 176.5q6 230 -115 356.5t-325 126.5q-113 0 -207 -38t-156.5 -100.5t-106.5 -145.5t-65 -170t-23 -177zM799 1532l172 233h196l-209 -233h-159z" />
<glyph unicode="&#xd4;" horiz-adv-x="1673" d="M123 647q1 78 15 156t44 158.5t73.5 152t108.5 134.5t145 108.5t186.5 72.5t228.5 27q313 -2 497 -180.5t178 -487.5q-2 -112 -28 -220.5t-87 -216.5t-149.5 -189t-226 -131.5t-307.5 -50.5q-315 0 -498.5 178t-179.5 489zM362 643q-4 -229 118.5 -355t326.5 -126 q112 0 205.5 38t156 100t106 145t63.5 169.5t22 176.5q6 230 -115 356.5t-325 126.5q-113 0 -207 -38t-156.5 -100.5t-106.5 -145.5t-65 -170t-23 -177zM631 1532l274 233h193l182 -233h-164l-121 154l-186 -154h-178z" />
<glyph unicode="&#xd5;" horiz-adv-x="1673" d="M123 647q1 78 15 156t44 158.5t73.5 152t108.5 134.5t145 108.5t186.5 72.5t228.5 27q313 -2 497 -180.5t178 -487.5q-2 -112 -28 -220.5t-87 -216.5t-149.5 -189t-226 -131.5t-307.5 -50.5q-315 0 -498.5 178t-179.5 489zM362 643q-4 -229 118.5 -355t326.5 -126 q112 0 205.5 38t156 100t106 145t63.5 169.5t22 176.5q6 230 -115 356.5t-325 126.5q-113 0 -207 -38t-156.5 -100.5t-106.5 -145.5t-65 -170t-23 -177zM623 1610q82 174 223 174q54 0 135 -45q72 -45 117 -45q27 0 50 12.5t33 24t26 34.5q3 5 5 7l70 -35 q-86 -174 -225 -174q-53 0 -127 43q-3 2 -14.5 8.5t-16 8.5t-14.5 7.5t-15.5 7.5t-15 6t-16.5 5t-15.5 2.5t-17.5 1.5q-41 0 -66.5 -20t-48.5 -56z" />
<glyph unicode="&#xd6;" horiz-adv-x="1675" d="M123 647q1 78 15 156t44 158.5t73.5 152t108.5 134.5t145 108.5t186.5 72.5t228.5 27q313 -2 497 -180.5t178 -487.5q-2 -112 -28 -220.5t-87 -216.5t-149.5 -189t-226 -131.5t-307.5 -50.5q-315 0 -498.5 178t-179.5 489zM362 643q-4 -229 118.5 -355t326.5 -126 q112 0 205.5 38t156 100t106 145t63.5 169.5t22 176.5q6 230 -115 356.5t-325 126.5q-113 0 -207 -38t-156.5 -100.5t-106.5 -145.5t-65 -170t-23 -177zM649 1661q2 46 29 73t76 27q56 0 84 -26.5t26 -73.5q-3 -100 -110 -100q-51 0 -79.5 26.5t-25.5 73.5zM1094 1661 q2 47 28.5 73.5t75.5 26.5q56 0 84.5 -26.5t26.5 -73.5q-2 -48 -30 -74t-81 -26q-51 0 -79 26.5t-25 73.5z" />
<glyph unicode="&#xd7;" horiz-adv-x="1075" d="M51 356l389 330l-272 332l129 110l272 -331l389 331l93 -110l-389 -332l272 -330l-131 -110l-273 329l-389 -329z" />
<glyph unicode="&#xd8;" horiz-adv-x="1675" d="M123 647q1 78 15 156t44 158.5t73.5 152t108.5 134.5t145 108.5t186.5 72.5t228.5 27q228 -3 391 -100l119 145h143l-172 -209q200 -181 194 -504q-2 -112 -28 -220.5t-87 -216.5t-149.5 -189t-226 -131.5t-307.5 -50.5q-237 0 -398 100l-129 -156h-141l182 221 q-198 179 -192 502zM362 643q-6 -196 95 -328l727 883q-112 76 -264 76q-113 0 -207 -38t-156.5 -100.5t-106.5 -145.5t-65 -170t-23 -177zM535 240q109 -78 272 -78q112 0 205.5 38t156 100t106 145t63.5 169.5t22 176.5q6 204 -94 331z" />
<glyph unicode="&#xd9;" horiz-adv-x="1505" d="M156 432q0 67 4 98l159 904h228l-160 -906q-6 -34 -6 -69q0 -128 83 -213.5t241 -85.5q162 0 255.5 87t118.5 224l172 963h228l-168 -945q-20 -112 -66.5 -203.5t-120.5 -161.5t-183 -108.5t-245 -38.5q-114 0 -207 27t-154 71.5t-102 104.5t-59 123t-18 129zM760 1763 h192l82 -231h-149z" />
<glyph unicode="&#xda;" horiz-adv-x="1505" d="M156 432q0 67 4 98l159 904h228l-160 -906q-6 -34 -6 -69q0 -128 83 -213.5t241 -85.5q162 0 255.5 87t118.5 224l172 963h228l-168 -945q-20 -112 -66.5 -203.5t-120.5 -161.5t-183 -108.5t-245 -38.5q-114 0 -207 27t-154 71.5t-102 104.5t-59 123t-18 129zM815 1532 l172 233h197l-209 -233h-160z" />
<glyph unicode="&#xdb;" horiz-adv-x="1505" d="M156 432q0 67 4 98l159 904h228l-160 -906q-6 -34 -6 -69q0 -128 83 -213.5t241 -85.5q162 0 255.5 87t118.5 224l172 963h228l-168 -945q-20 -112 -66.5 -203.5t-120.5 -161.5t-183 -108.5t-245 -38.5q-114 0 -207 27t-154 71.5t-102 104.5t-59 123t-18 129zM590 1532 l274 233h193l182 -233h-164l-121 154l-186 -154h-178z" />
<glyph unicode="&#xdc;" horiz-adv-x="1505" d="M156 432q0 67 4 98l159 904h228l-160 -906q-6 -34 -6 -69q0 -128 83 -213.5t241 -85.5q162 0 255.5 87t118.5 224l172 963h228l-168 -945q-20 -112 -66.5 -203.5t-120.5 -161.5t-183 -108.5t-245 -38.5q-114 0 -207 27t-154 71.5t-102 104.5t-59 123t-18 129zM596 1661 q2 47 28.5 73.5t75.5 26.5q56 0 84.5 -26.5t26.5 -73.5q-2 -48 -30 -74t-81 -26q-51 0 -79 26.5t-25 73.5zM1040 1661q2 46 29 73t76 27q56 0 84 -26.5t26 -73.5q-3 -100 -110 -100q-51 0 -79.5 26.5t-25.5 73.5z" />
<glyph unicode="&#xdd;" horiz-adv-x="1341" d="M190 1434h228l272 -686l516 686h244l-672 -873l-98 -561h-227l100 567zM715 1532l172 233h196l-209 -233h-159z" />
<glyph unicode="&#xde;" horiz-adv-x="1404" d="M74 0l252 1434h225l-41 -238h391q117 0 209 -37t147.5 -99.5t84 -141t28.5 -166.5q0 -71 -18.5 -139.5t-60.5 -132t-102.5 -111.5t-151 -76.5t-199.5 -28.5h-492l-47 -264h-225zM377 440h432q81 0 144 25.5t100.5 69.5t57 97t19.5 113q0 41 -9 79t-31 74t-54 63t-81.5 43 t-110.5 16h-365z" />
<glyph unicode="&#xdf;" horiz-adv-x="1298" d="M39 0l180 1024q19 111 65 195.5t110.5 135.5t141.5 76t164 25q190 0 295 -89t105 -218q0 -60 -17.5 -108t-42 -79t-49 -60t-42 -65.5t-17.5 -80.5q0 -47 24.5 -88.5t59 -75t68.5 -71.5t57.5 -97t21.5 -133q-3 -177 -114 -261.5t-301 -84.5q-149 0 -324 55l41 166 q145 -51 262 -51q105 0 162.5 53t60.5 154q1 54 -20.5 98t-53 75.5t-63 63.5t-54 76.5t-22.5 99.5q0 54 17.5 97.5t43 72.5t51 56.5t43 65t17.5 83.5q0 32 -11 61.5t-33.5 56t-64.5 42.5t-98 16q-105 0 -175 -74t-95 -211l-178 -1001h-215z" />
<glyph unicode="&#xe0;" horiz-adv-x="1304" d="M76 471q0 95 21.5 183t66 166t107.5 136t153.5 91.5t196.5 33.5q135 0 238.5 -59t148.5 -158l45 201h202l-141 -803l-33 -262h-200l18 152q-133 -168 -371 -168q-217 0 -333.5 132.5t-118.5 354.5zM293 477q0 -153 80.5 -241.5t220.5 -88.5q77 0 140 29t103 74.5t67 106 t38.5 119.5t11.5 118q0 150 -79 238t-220 88q-76 0 -138 -28t-103 -73t-69 -104t-40 -119t-12 -119zM541 1497h194l88 -303h-151z" />
<glyph unicode="&#xe1;" horiz-adv-x="1306" d="M76 471q0 95 21.5 183t66 166t107.5 136t153.5 91.5t196.5 33.5q135 0 238.5 -59t148.5 -158l45 201h202l-141 -803l-33 -262h-200l18 152q-133 -168 -371 -168q-217 0 -333.5 132.5t-118.5 354.5zM293 477q0 -153 80.5 -241.5t220.5 -88.5q77 0 140 29t103 74.5t67 106 t38.5 119.5t11.5 118q0 150 -79 238t-220 88q-76 0 -138 -28t-103 -73t-69 -104t-40 -119t-12 -119zM612 1194l207 303h201l-246 -303h-162z" />
<glyph unicode="&#xe2;" horiz-adv-x="1306" d="M76 471q0 95 21.5 183t66 166t107.5 136t153.5 91.5t196.5 33.5q135 0 238.5 -59t148.5 -158l45 201h202l-141 -803l-33 -262h-200l18 152q-133 -168 -371 -168q-217 0 -333.5 132.5t-118.5 354.5zM293 477q0 -153 80.5 -241.5t220.5 -88.5q77 0 140 29t103 74.5t67 106 t38.5 119.5t11.5 118q0 150 -79 238t-220 88q-76 0 -138 -28t-103 -73t-69 -104t-40 -119t-12 -119zM422 1194l280 305h195l174 -305h-164l-116 217l-195 -217h-174z" />
<glyph unicode="&#xe3;" horiz-adv-x="1304" d="M76 471q0 95 21.5 183t66 166t107.5 136t153.5 91.5t196.5 33.5q135 0 238.5 -59t148.5 -158l45 201h202l-141 -803l-33 -262h-200l18 152q-133 -168 -371 -168q-217 0 -333.5 132.5t-118.5 354.5zM293 477q0 -153 80.5 -241.5t220.5 -88.5q77 0 140 29t103 74.5t67 106 t38.5 119.5t11.5 118q0 150 -79 238t-220 88q-76 0 -138 -28t-103 -73t-69 -104t-40 -119t-12 -119zM422 1272q82 174 223 174q54 0 135 -45q72 -45 117 -45q29 0 53.5 14.5t33.5 25.5t28 38l69 -35q-86 -174 -225 -174q-53 0 -127 43q-3 2 -14.5 8.5t-16 8.5t-14.5 7.5 t-15.5 7.5t-15 6t-16.5 5t-15.5 2.5t-17.5 1.5q-41 0 -66.5 -20t-48.5 -56z" />
<glyph unicode="&#xe4;" horiz-adv-x="1304" d="M76 471q0 95 21.5 183t66 166t107.5 136t153.5 91.5t196.5 33.5q135 0 238.5 -59t148.5 -158l45 201h202l-141 -803l-33 -262h-200l18 152q-133 -168 -371 -168q-217 0 -333.5 132.5t-118.5 354.5zM293 477q0 -153 80.5 -241.5t220.5 -88.5q77 0 140 29t103 74.5t67 106 t38.5 119.5t11.5 118q0 150 -79 238t-220 88q-76 0 -138 -28t-103 -73t-69 -104t-40 -119t-12 -119zM416 1329q2 47 30 75t78 28q58 0 88.5 -28t28.5 -75q-2 -51 -32 -78.5t-85 -27.5q-54 0 -82.5 27.5t-25.5 78.5zM860 1329q2 47 30.5 75t78.5 28q58 0 87 -28t27 -75 q-3 -106 -114 -106q-54 0 -83 27.5t-26 78.5z" />
<glyph unicode="&#xe5;" horiz-adv-x="1306" d="M76 471q0 95 21.5 183t66 166t107.5 136t153.5 91.5t196.5 33.5q135 0 238.5 -59t148.5 -158l45 201h202l-141 -803l-33 -262h-200l18 152q-133 -168 -371 -168q-217 0 -333.5 132.5t-118.5 354.5zM293 477q0 -153 80.5 -241.5t220.5 -88.5q77 0 140 29t103 74.5t67 106 t38.5 119.5t11.5 118q0 150 -79 238t-220 88q-76 0 -138 -28t-103 -73t-69 -104t-40 -119t-12 -119zM563 1384q4 100 66.5 153.5t156.5 53.5q93 0 154.5 -49t58.5 -143q-3 -103 -66 -157t-159 -54q-93 0 -154 49.5t-57 146.5zM672 1382q-4 -56 26.5 -82t75.5 -26 q46 0 79.5 30.5t37.5 92.5q3 57 -30 82.5t-79 25.5q-45 0 -75.5 -30.5t-34.5 -92.5z" />
<glyph unicode="&#xe6;" horiz-adv-x="1871" d="M27 289q0 95 40.5 163.5t115 108t168.5 58t212 18.5q75 0 211 -8q28 94 80 176q-16 62 -77.5 87.5t-162.5 25.5q-83 0 -193.5 -16t-197.5 -40l-2 160q101 28 229 43.5t232 15.5q255 0 340 -108q159 108 379 108q85 0 155.5 -16t127.5 -50.5t89 -94.5t31 -142 q-2 -338 -575 -338q-139 0 -258 21q1 -157 90.5 -238.5t247.5 -81.5q89 0 184 24.5t160 59.5l43 -145q-83 -49 -201.5 -72.5t-224.5 -23.5q-155 0 -270 50.5t-179 149.5q-58 -86 -162 -143t-260 -57q-176 0 -274 76t-98 229zM244 301q0 -164 211 -164q103 0 185.5 42.5 t125.5 135.5q-14 60 -14 144v33q-106 8 -179 8q-329 0 -329 -199zM987 596q98 -16 217 -16q81 0 143.5 7.5t121 27t90 59t32.5 96.5q1 79 -54.5 113.5t-152.5 34.5q-148 0 -254 -91.5t-143 -230.5z" />
<glyph unicode="&#xe7;" horiz-adv-x="1116" d="M74 481q0 179 80.5 316.5t220.5 210.5t317 73q199 0 365 -92l-76 -149q-139 73 -291 73q-184 0 -290.5 -114.5t-106.5 -296.5q0 -174 96 -262t258 -88q146 0 273 67l41 -156q-169 -79 -353 -79q-6 0 -18 1t-17 1l-49 -99q23 0 46.5 -6t48.5 -19.5t41 -42t16 -67.5 q0 -86 -69.5 -126t-170.5 -40q-105 0 -174 29l23 90q61 -27 141 -27q104 0 104 66q0 70 -120 53l-27 41l78 160q-174 35 -280.5 154.5t-106.5 328.5z" />
<glyph unicode="&#xe8;" horiz-adv-x="1191" d="M72 459q1 98 29 190t83.5 170t132.5 136.5t181 92t223 33.5q85 0 155.5 -16t127.5 -50.5t89 -94.5t31 -142q-2 -338 -575 -338q-139 0 -258 21q1 -157 90.5 -238.5t247.5 -81.5q89 0 184 24.5t160 59.5l43 -145q-83 -49 -201.5 -72.5t-224.5 -23.5q-242 0 -380.5 122.5 t-137.5 352.5zM307 596q98 -16 217 -16q81 0 143.5 7.5t121 27t90 59t32.5 96.5q1 79 -54 113.5t-152 34.5q-148 0 -254.5 -91.5t-143.5 -230.5zM575 1497h195l88 -303h-151z" />
<glyph unicode="&#xe9;" horiz-adv-x="1191" d="M72 459q1 98 29 190t83.5 170t132.5 136.5t181 92t223 33.5q85 0 155.5 -16t127.5 -50.5t89 -94.5t31 -142q-2 -338 -575 -338q-139 0 -258 21q1 -157 90.5 -238.5t247.5 -81.5q89 0 184 24.5t160 59.5l43 -145q-83 -49 -201.5 -72.5t-224.5 -23.5q-242 0 -380.5 122.5 t-137.5 352.5zM307 596q98 -16 217 -16q81 0 143.5 7.5t121 27t90 59t32.5 96.5q1 79 -54 113.5t-152 34.5q-148 0 -254.5 -91.5t-143.5 -230.5zM584 1194l207 303h200l-246 -303h-161z" />
<glyph unicode="&#xea;" horiz-adv-x="1191" d="M72 459q1 98 29 190t83.5 170t132.5 136.5t181 92t223 33.5q85 0 155.5 -16t127.5 -50.5t89 -94.5t31 -142q-2 -338 -575 -338q-139 0 -258 21q1 -157 90.5 -238.5t247.5 -81.5q89 0 184 24.5t160 59.5l43 -145q-83 -49 -201.5 -72.5t-224.5 -23.5q-242 0 -380.5 122.5 t-137.5 352.5zM307 596q98 -16 217 -16q81 0 143.5 7.5t121 27t90 59t32.5 96.5q1 79 -54 113.5t-152 34.5q-148 0 -254.5 -91.5t-143.5 -230.5zM350 1194l281 305h194l174 -305h-163l-117 217l-195 -217h-174z" />
<glyph unicode="&#xeb;" horiz-adv-x="1191" d="M72 459q1 98 29 190t83.5 170t132.5 136.5t181 92t223 33.5q85 0 155.5 -16t127.5 -50.5t89 -94.5t31 -142q-2 -338 -575 -338q-139 0 -258 21q1 -157 90.5 -238.5t247.5 -81.5q89 0 184 24.5t160 59.5l43 -145q-83 -49 -201.5 -72.5t-224.5 -23.5q-242 0 -380.5 122.5 t-137.5 352.5zM307 596q98 -16 217 -16q81 0 143.5 7.5t121 27t90 59t32.5 96.5q1 79 -54 113.5t-152 34.5q-148 0 -254.5 -91.5t-143.5 -230.5zM375 1329q2 47 30 75t78 28q58 0 88.5 -28t28.5 -75q-2 -51 -32 -78.5t-85 -27.5q-54 0 -82.5 27.5t-25.5 78.5zM819 1329 q2 47 30.5 75t78.5 28q58 0 87 -28t27 -75q-3 -106 -114 -106q-54 0 -83 27.5t-26 78.5z" />
<glyph unicode="&#xec;" d="M76 0l162 913h-132l29 152h344l-188 -1065h-215zM186 1485h195l88 -303h-152z" />
<glyph unicode="&#xed;" d="M76 0l162 913h-132l29 152h344l-188 -1065h-215zM260 1194l207 303h201l-246 -303h-162z" />
<glyph unicode="&#xee;" d="M29 1182l280 305h195l174 -305h-164l-117 217l-194 -217h-174zM76 0l162 913h-132l29 152h344l-188 -1065h-215z" />
<glyph unicode="&#xef;" d="M27 1317q2 47 30 74.5t78 27.5q59 0 89 -27.5t28 -74.5q-2 -51 -32 -79t-85 -28q-54 0 -82.5 28t-25.5 79zM76 0l162 913h-132l29 152h344l-188 -1065h-215zM471 1317q2 47 30.5 74.5t78.5 27.5q58 0 87 -27.5t27 -74.5q-3 -107 -114 -107q-54 0 -83 28t-26 79z" />
<glyph unicode="&#xf0;" horiz-adv-x="1181" d="M35 444q0 112 34.5 211t98.5 174.5t164 119.5t223 44q126 0 221 -46.5t150 -125.5q-5 47 -23 119q-29 181 -137 346l-197 -121l-37 68l189 117q-62 82 -164 178l145 90q95 -76 175 -172l196 121l37 -70l-184 -115q202 -281 202 -655q0 -215 -66 -381t-202 -264t-325 -98 q-239 0 -369.5 120.5t-130.5 339.5zM254 451q0 -139 69 -221.5t209 -82.5q162 0 252 108.5t90 270.5q0 137 -72 220t-214 83q-110 0 -187.5 -54.5t-112 -138t-34.5 -185.5z" />
<glyph unicode="&#xf1;" horiz-adv-x="1228" d="M31 0l137 782l33 283h194l-18 -172q71 92 175.5 140t227.5 48q176 0 259 -91t83 -240q0 -59 -12 -121l-111 -629h-215l111 627q8 54 8 80q0 95 -49.5 153t-159.5 58q-144 0 -233 -101t-117 -260l-98 -557h-215zM420 1272q82 174 223 174q54 0 135 -45q72 -45 117 -45 q29 0 53.5 14.5t33.5 25.5t28 38l69 -35q-86 -174 -225 -174q-53 0 -127 43q-3 2 -14.5 8.5t-16 8.5t-14.5 7.5t-15.5 7.5t-15 6t-16.5 5t-15.5 2.5t-17.5 1.5q-41 0 -66.5 -20t-48.5 -56z" />
<glyph unicode="&#xf2;" horiz-adv-x="1284" d="M86 477q2 173 71.5 308.5t207 215.5t323.5 80q224 0 363.5 -129.5t136.5 -363.5q-2 -129 -42.5 -239t-115 -191.5t-188.5 -127.5t-254 -46q-227 0 -365 129t-137 364zM305 475q-1 -156 80 -239.5t217 -83.5q89 0 160 37t115 99.5t67 139.5t25 162q3 155 -79.5 239 t-219.5 84q-88 0 -159 -37.5t-115 -100t-67 -139.5t-24 -161zM551 1485h194l89 -303h-152z" />
<glyph unicode="&#xf3;" horiz-adv-x="1284" d="M86 477q2 173 71.5 308.5t207 215.5t323.5 80q224 0 363.5 -129.5t136.5 -363.5q-2 -129 -42.5 -239t-115 -191.5t-188.5 -127.5t-254 -46q-227 0 -365 129t-137 364zM305 475q-1 -156 80 -239.5t217 -83.5q89 0 160 37t115 99.5t67 139.5t25 162q3 155 -79.5 239 t-219.5 84q-88 0 -159 -37.5t-115 -100t-67 -139.5t-24 -161zM598 1194l207 303h201l-246 -303h-162z" />
<glyph unicode="&#xf4;" horiz-adv-x="1284" d="M86 477q2 173 71.5 308.5t207 215.5t323.5 80q224 0 363.5 -129.5t136.5 -363.5q-2 -129 -42.5 -239t-115 -191.5t-188.5 -127.5t-254 -46q-227 0 -365 129t-137 364zM305 475q-1 -156 80 -239.5t217 -83.5q89 0 160 37t115 99.5t67 139.5t25 162q3 155 -79.5 239 t-219.5 84q-88 0 -159 -37.5t-115 -100t-67 -139.5t-24 -161zM379 1182l280 305h195l174 -305h-164l-116 217l-195 -217h-174z" />
<glyph unicode="&#xf5;" horiz-adv-x="1273" d="M86 477q2 173 71.5 308.5t207 215.5t323.5 80q224 0 363.5 -129.5t136.5 -363.5q-2 -129 -42.5 -239t-115 -191.5t-188.5 -127.5t-254 -46q-227 0 -365 129t-137 364zM305 475q-1 -156 80 -239.5t217 -83.5q89 0 160 37t115 99.5t67 139.5t25 162q3 155 -79.5 239 t-219.5 84q-88 0 -159 -37.5t-115 -100t-67 -139.5t-24 -161zM401 1260q82 174 224 174q54 0 135 -45q74 -46 117 -46q27 0 50 12.5t33 24t26 34.5q3 5 5 7l70 -35q-86 -174 -225 -174q-53 0 -127 43q-3 2 -19.5 11.5t-21.5 12t-18.5 9t-22 8.5t-20.5 4.5t-23 2.5 q-41 0 -66.5 -20t-48.5 -56z" />
<glyph unicode="&#xf6;" horiz-adv-x="1273" d="M86 477q2 173 71.5 308.5t207 215.5t323.5 80q224 0 363.5 -129.5t136.5 -363.5q-2 -129 -42.5 -239t-115 -191.5t-188.5 -127.5t-254 -46q-227 0 -365 129t-137 364zM305 475q-1 -156 80 -239.5t217 -83.5q89 0 160 37t115 99.5t67 139.5t25 162q3 155 -79.5 239 t-219.5 84q-88 0 -159 -37.5t-115 -100t-67 -139.5t-24 -161zM385 1317q2 47 30.5 74.5t78.5 27.5q58 0 88 -27.5t28 -74.5q-2 -51 -31.5 -79t-84.5 -28q-54 0 -83 28t-26 79zM829 1317q2 47 30.5 74.5t78.5 27.5q58 0 87.5 -27.5t27.5 -74.5q-2 -52 -31 -79.5t-84 -27.5 q-54 0 -83 28t-26 79z" />
<glyph unicode="&#xf7;" horiz-adv-x="1177" d="M129 602l25 139h925l-24 -139h-926zM436 313q2 45 31 77t80 32q48 0 79 -27.5t27 -79.5q-3 -45 -32.5 -74.5t-81.5 -29.5q-45 0 -76 25.5t-27 76.5zM563 1032q2 45 31 77t80 32q48 0 79 -27t27 -78q-3 -46 -32.5 -77t-81.5 -31q-45 0 -76 25.5t-27 78.5z" />
<glyph unicode="&#xf8;" horiz-adv-x="1273" d="M86 -68l143 174q-146 133 -143 371q2 173 71.5 308.5t207 215.5t323.5 80q165 0 289 -73l104 125h101l-142 -172q151 -135 148 -373q-2 -129 -42.5 -239t-115 -191.5t-188.5 -127.5t-254 -46q-177 0 -295 75l-105 -127h-102zM305 475q-3 -131 55 -211l494 594 q-73 55 -184 55q-88 0 -159 -37.5t-115 -100t-67 -139.5t-24 -161zM416 207q73 -55 186 -55q89 0 160 37t115 99.5t67 139.5t25 162q3 128 -60 213z" />
<glyph unicode="&#xf9;" horiz-adv-x="1253" d="M90 315q0 59 12 121l111 629h215l-109 -627q-8 -54 -8 -82q0 -93 49.5 -151t157.5 -58q145 0 233.5 100.5t116.5 260.5l99 557h215l-138 -782l-30 -283h-195l17 166q-72 -90 -176.5 -136t-227.5 -46q-176 0 -259 91t-83 240zM514 1497h195l88 -303h-152z" />
<glyph unicode="&#xfa;" horiz-adv-x="1255" d="M90 315q0 59 12 121l111 629h215l-109 -627q-8 -54 -8 -82q0 -93 49.5 -151t157.5 -58q145 0 233.5 100.5t116.5 260.5l99 557h215l-138 -782l-30 -283h-195l17 166q-72 -90 -176.5 -136t-227.5 -46q-176 0 -259 91t-83 240zM608 1194l207 303h201l-246 -303h-162z" />
<glyph unicode="&#xfb;" horiz-adv-x="1255" d="M90 315q0 59 12 121l111 629h215l-109 -627q-8 -54 -8 -82q0 -93 49.5 -151t157.5 -58q145 0 233.5 100.5t116.5 260.5l99 557h215l-138 -782l-30 -283h-195l17 166q-72 -90 -176.5 -136t-227.5 -46q-176 0 -259 91t-83 240zM391 1194l281 305h194l174 -305h-163 l-117 217l-195 -217h-174z" />
<glyph unicode="&#xfc;" horiz-adv-x="1255" d="M90 315q0 59 12 121l111 629h215l-109 -627q-8 -54 -8 -82q0 -93 49.5 -151t157.5 -58q145 0 233.5 100.5t116.5 260.5l99 557h215l-138 -782l-30 -283h-195l17 166q-72 -90 -176.5 -136t-227.5 -46q-176 0 -259 91t-83 240zM391 1329q2 47 30.5 75t78.5 28q58 0 88 -28 t28 -75q-2 -51 -31.5 -78.5t-84.5 -27.5q-54 0 -83 27.5t-26 78.5zM836 1329q2 47 30 75t78 28q58 0 87.5 -28t27.5 -75q-3 -106 -115 -106q-54 0 -82.5 27.5t-25.5 78.5z" />
<glyph unicode="&#xfd;" horiz-adv-x="1167" d="M-59 -324l36 160q91 -26 154 -26q73 0 123 32t90 109l25 47l-250 1067h221l178 -862l436 862h236l-619 -1145q-47 -85 -93.5 -140.5t-97 -85.5t-99.5 -41t-113 -11q-101 0 -227 34zM535 1194l206 303h201l-246 -303h-161z" />
<glyph unicode="&#xfe;" horiz-adv-x="1308" d="M-23 -348l314 1782h215l-86 -490q65 65 154.5 101t191.5 36q218 0 335.5 -131t117.5 -356q0 -95 -21 -183.5t-65 -166t-107 -135.5t-153 -92t-197 -35q-140 0 -240.5 54t-148.5 148l-94 -532h-216zM340 471q0 -149 79.5 -236.5t219.5 -87.5q76 0 138.5 28t102.5 73 t68 104t39.5 118t11.5 118q0 151 -79.5 238t-219.5 87q-76 0 -138.5 -28.5t-102.5 -74t-68 -104.5t-39.5 -118t-11.5 -117z" />
<glyph unicode="&#xff;" horiz-adv-x="1167" d="M-59 -324l36 160q91 -26 154 -26q73 0 123 32t90 109l25 47l-250 1067h221l178 -862l436 862h236l-619 -1145q-47 -85 -93.5 -140.5t-97 -85.5t-99.5 -41t-113 -11q-101 0 -227 34zM324 1298q2 47 30 75t78 28q58 0 88.5 -28t28.5 -75q-2 -51 -32 -78.5t-85 -27.5 q-54 0 -82.5 27.5t-25.5 78.5zM768 1298q2 47 30.5 75t78.5 28q58 0 87 -28t27 -75q-3 -106 -114 -106q-54 0 -83 27.5t-26 78.5z" />
<glyph unicode="&#x152;" horiz-adv-x="2586" d="M123 647q1 78 15 156t44 158.5t73.5 152t108.5 134.5t145 108.5t186.5 72.5t228.5 27q223 -2 379.5 -99.5t220.5 -275.5l63 353h1026l-30 -177h-797l-84 -469h688l-33 -176h-686l-76 -436h815l-30 -176h-1045l41 242q-206 -262 -575 -262q-315 0 -498.5 178t-179.5 489z M362 643q-4 -230 117.5 -355.5t325.5 -125.5q113 0 206.5 38t156 100t106 145t64 169.5t22.5 176.5q4 231 -116.5 357t-325.5 126q-113 0 -206.5 -38t-156 -100t-106.5 -145t-64.5 -170t-22.5 -178z" />
<glyph unicode="&#x153;" horiz-adv-x="2099" d="M86 477q2 173 71.5 308.5t207 215.5t323.5 80q144 0 258 -57t176 -164q88 104 217 162.5t289 58.5q85 0 155.5 -16t128 -50.5t89.5 -94.5t31 -142q-2 -338 -576 -338q-139 0 -258 21q1 -157 90.5 -238.5t247.5 -81.5q89 0 184 24.5t160 59.5l43 -145 q-83 -49 -201.5 -72.5t-224.5 -23.5q-153 0 -267.5 50t-178.5 148q-77 -94 -194.5 -146t-268.5 -52q-227 0 -365 129t-137 364zM305 475q-1 -156 80 -239.5t217 -83.5q89 0 160 37t115 99.5t67 139.5t25 162q3 155 -79.5 239t-219.5 84q-88 0 -159 -37.5t-115 -100 t-67 -139.5t-24 -161zM1214 596q98 -16 218 -16q81 0 143.5 7.5t121 27t90 59t32.5 96.5q1 79 -54.5 113.5t-152.5 34.5q-148 0 -254.5 -91.5t-143.5 -230.5z" />
<glyph unicode="&#x178;" horiz-adv-x="1341" d="M190 1434h228l272 -686l516 686h244l-672 -873l-98 -561h-227l100 567zM508 1661q2 47 28.5 73.5t75.5 26.5q56 0 84.5 -26.5t26.5 -73.5q-2 -48 -30 -74t-81 -26q-51 0 -79 26.5t-25 73.5zM952 1661q2 46 29 73t76 27q56 0 84 -26.5t26 -73.5q-3 -100 -110 -100 q-51 0 -79.5 26.5t-25.5 73.5z" />
<glyph unicode="&#x2c6;" horiz-adv-x="768" d="M168 1163l281 305h194l174 -305h-164l-116 217l-195 -217h-174z" />
<glyph unicode="&#x2dc;" horiz-adv-x="743" d="M176 1241q82 174 223 174q55 0 136 -45q72 -45 116 -45q29 0 53.5 14.5t33.5 25.5t28 38l70 -35q-86 -174 -226 -174q-53 0 -127 43q-3 2 -14.5 8.5t-16 8.5t-14.5 7.5t-15.5 7.5t-15 6t-16.5 5t-15.5 2.5t-17.5 1.5q-41 0 -65.5 -19.5t-48.5 -56.5z" />
<glyph unicode="&#x2000;" horiz-adv-x="964" />
<glyph unicode="&#x2001;" horiz-adv-x="1929" />
<glyph unicode="&#x2002;" horiz-adv-x="964" />
<glyph unicode="&#x2003;" horiz-adv-x="1929" />
<glyph unicode="&#x2004;" horiz-adv-x="643" />
<glyph unicode="&#x2005;" horiz-adv-x="482" />
<glyph unicode="&#x2006;" horiz-adv-x="321" />
<glyph unicode="&#x2007;" horiz-adv-x="321" />
<glyph unicode="&#x2008;" horiz-adv-x="241" />
<glyph unicode="&#x2009;" horiz-adv-x="385" />
<glyph unicode="&#x200a;" horiz-adv-x="107" />
<glyph unicode="&#x2010;" horiz-adv-x="1032" d="M115 467l30 162h744l-31 -162h-743z" />
<glyph unicode="&#x2011;" horiz-adv-x="1032" d="M115 467l30 162h744l-31 -162h-743z" />
<glyph unicode="&#x2012;" horiz-adv-x="1032" d="M115 467l30 162h744l-31 -162h-743z" />
<glyph unicode="&#x2013;" horiz-adv-x="1458" d="M115 467l30 162h1168l-29 -160z" />
<glyph unicode="&#x2014;" horiz-adv-x="1810" d="M115 467l30 162h1518l-29 -162h-1519z" />
<glyph unicode="&#x2018;" horiz-adv-x="534" d="M217 1110q0 104 75.5 186.5t184.5 124.5l45 -59q-71 -30 -125.5 -88t-54.5 -135q18 18 51 18q40 0 63 -22.5t23 -63.5q0 -56 -36 -87.5t-93 -31.5q-62 0 -97.5 44t-35.5 114z" />
<glyph unicode="&#x2019;" horiz-adv-x="534" d="M221 1008q71 33 124 89t54 132q-20 -17 -51 -17q-39 0 -61.5 23t-22.5 65q0 53 35.5 85t93.5 32q62 0 97.5 -43.5t35.5 -113.5q0 -104 -76.5 -188t-183.5 -122z" />
<glyph unicode="&#x201a;" horiz-adv-x="530" d="M6 -195q69 30 123 87.5t55 134.5q-20 -17 -51 -17q-39 0 -61.5 22.5t-22.5 63.5q0 55 35.5 86t93.5 31q62 0 97.5 -43.5t35.5 -112.5q0 -104 -76.5 -187.5t-183.5 -123.5z" />
<glyph unicode="&#x201c;" horiz-adv-x="933" d="M223 1110q0 104 75.5 186.5t184.5 124.5l45 -59q-71 -30 -125.5 -88t-54.5 -135q18 18 51 18q40 0 63 -22.5t23 -63.5q0 -56 -36 -87.5t-93 -31.5q-62 0 -97.5 44t-35.5 114zM623 1110q0 104 75.5 186.5t184.5 124.5l45 -59q-71 -30 -125.5 -88t-54.5 -135q18 18 51 18 q40 0 63 -22.5t23 -63.5q0 -56 -36 -87.5t-93 -31.5q-62 0 -97.5 44t-35.5 114z" />
<glyph unicode="&#x201d;" horiz-adv-x="933" d="M217 1008q69 30 123 87t55 134q-20 -17 -51 -17q-39 0 -61.5 23t-22.5 65q0 53 35.5 85t93.5 32q62 0 97.5 -43.5t35.5 -113.5q0 -104 -76.5 -188t-183.5 -122zM616 1008q43 19 80.5 46.5t67.5 74.5t31 100q-20 -17 -52 -17q-39 0 -61.5 23t-22.5 65q0 53 35.5 85 t93.5 32q62 0 98 -43.5t36 -113.5q0 -104 -76.5 -188t-183.5 -122z" />
<glyph unicode="&#x201e;" horiz-adv-x="929" d="M10 -195q68 27 122.5 86.5t55.5 135.5q-20 -17 -51 -17q-39 0 -61.5 22.5t-22.5 63.5q0 55 35.5 86t93.5 31q62 0 97.5 -43.5t35.5 -112.5q0 -104 -76.5 -187.5t-183.5 -123.5zM412 -195q68 27 122.5 86.5t55.5 135.5q-20 -17 -51 -17q-39 0 -61.5 22.5t-22.5 63.5 q0 55 35.5 86t93.5 31q62 0 97.5 -43.5t35.5 -112.5q0 -104 -76.5 -187.5t-183.5 -123.5z" />
<glyph unicode="&#x2022;" horiz-adv-x="829" d="M223 707q7 97 68 150.5t160 53.5q92 0 147.5 -53.5t48.5 -150.5t-68 -150t-159 -53q-92 0 -148 54.5t-49 148.5z" />
<glyph unicode="&#x2026;" horiz-adv-x="1382" d="M53 90q5 52 34.5 82.5t80.5 30.5q55 0 87 -30t28 -79q-9 -114 -117 -114q-54 0 -86.5 28.5t-26.5 81.5zM496 90q5 53 34 83t80 30q55 0 87 -30t28 -79q-9 -114 -117 -114q-54 0 -86 28.5t-26 81.5zM942 90q5 52 34.5 82.5t80.5 30.5q55 0 86.5 -30t27.5 -79 q-9 -114 -116 -114q-54 0 -86.5 28.5t-26.5 81.5z" />
<glyph unicode="&#x202f;" horiz-adv-x="385" />
<glyph unicode="&#x2039;" horiz-adv-x="739" d="M74 510l8 45l512 481l102 -114l-393 -406l242 -391l-129 -96z" />
<glyph unicode="&#x203a;" horiz-adv-x="739" d="M12 143l394 404l-242 393l129 96l342 -481l-6 -45l-512 -481z" />
<glyph unicode="&#x205f;" horiz-adv-x="482" />
<glyph unicode="&#x20ac;" horiz-adv-x="1626" d="M119 528l41 101h127v33q0 77 10 133h-168l51 100h139q34 119 102 220t166.5 177.5t233.5 120t293 43.5q247 0 426 -113l-80 -155q-64 34 -154.5 59t-179.5 25q-212 0 -356 -104t-203 -273h670l-51 -100h-645q-11 -54 -11 -121v-45h592l-41 -101h-536q37 -166 157 -265 t314 -99q188 0 344 76l-10 -185q-166 -75 -381 -75q-146 0 -266.5 42.5t-202.5 118t-133 173.5t-70 214h-178z" />
<glyph unicode="&#x2122;" horiz-adv-x="1603" d="M258 1325l18 109h553l-18 -109h-221l-94 -526h-113l92 526h-217zM842 799l112 635h109l145 -418l283 418h111l-113 -635h-111l74 418l-225 -328h-80l-119 328l-76 -418h-110z" />
<glyph unicode="&#x25fc;" horiz-adv-x="1064" d="M0 0v1065h1065v-1065h-1065z" />
<glyph unicode="&#xfb01;" horiz-adv-x="1200" d="M57 -225l201 1138h-164l29 152h162l14 78q29 174 148.5 273.5t300.5 99.5q84 0 176.5 -24t165.5 -73l-72 -131q-14 10 -41.5 24.5t-89 32t-121.5 17.5q-112 0 -174.5 -60.5t-77.5 -152.5l-14 -84h637l-187 -1065h-215l160 913h-422l-201 -1138h-215z" />
<glyph unicode="&#xfb02;" horiz-adv-x="1247" d="M47 -225l201 1138h-154l27 152h153l9 47q32 186 149 295t316 109q84 0 152.5 -20.5t122 -62t83 -111t29.5 -161.5q0 -51 -15 -133l-141 -797q-8 -47 11 -64t59 -17q61 0 88 6l-21 -158q-79 -14 -168 -14q-119 0 -164 52t-22 179l153 877q9 51 9 77q0 96 -51.5 140.5 t-137.5 44.5q-92 0 -153.5 -59t-81.5 -171l-11 -59h246l-26 -152h-246l-201 -1138h-215z" />
</font>
</defs>
</svg>
