<svg width="129" height="220" xmlns="http://www.w3.org/2000/svg" xmlns:xlink="http://www.w3.org/1999/xlink" overflow="hidden"><defs><clipPath id="clip0"><path d="M755 325 884 325 884 545 755 545Z" fill-rule="evenodd" clip-rule="evenodd"/></clipPath></defs><g clip-path="url(#clip0)" transform="translate(-755 -325)"><path d="M855.122 326C824.146 389.54 824.146 389.54 824.146 389.54 756.516 383.858 756.516 383.858 756.516 383.858 764.26 398.322 768.906 414.853 768.906 432.417 768.906 450.498 764.26 467.545 756 482.009 784.911 544 784.911 544 784.911 544 855.638 538.318 855.638 538.318 855.638 538.318 873.191 506.806 883 471.161 883 432.417 883 393.673 872.675 357.512 855.122 326Z" fill="#0091DF" stroke="#FFFFFF"  fill-rule="evenodd"/></g></svg>